<?xml version="1.0" standalone="no"?>
<!DOCTYPE svg PUBLIC "-//W3C//DTD SVG 20010904//EN"
 "http://www.w3.org/TR/2001/REC-SVG-20010904/DTD/svg10.dtd">
<svg version="1.0" xmlns="http://www.w3.org/2000/svg"
 width="512.000000pt" height="512.000000pt" viewBox="0 0 512.000000 512.000000"
 preserveAspectRatio="xMidYMid meet">
<metadata>
Created by potrace 1.11, written by Peter Selinger 2001-2013
</metadata>
<g transform="translate(0.000000,512.000000) scale(0.100000,-0.100000)"
fill="#000000" stroke="none">
<path d="M507 5113 c-1 0 -18 -2 -37 -4 -72 -7 -161 -89 -178 -166 -8 -34 -11
-745 -9 -2408 l2 -2360 22 -40 c25 -47 65 -86 113 -111 33 -17 126 -18 2075
-18 1122 0 2054 3 2071 6 63 12 128 61 162 123 16 27 17 132 20 1197 l2 1167
35 17 c23 11 37 26 44 47 5 18 8 117 8 220 l-2 189 -28 24 c-16 13 -35 24 -43
24 -12 0 -14 129 -14 957 l0 956 -24 51 c-13 28 -39 62 -58 76 -76 57 78 53
-2126 54 -1119 1 -2034 0 -2035 -1z"/>
</g>
</svg>
